<svg id="Layer_1" data-name="Layer 1" xmlns="http://www.w3.org/2000/svg" viewBox="0 0 339.56 170.76"><defs><style>.cls-1{fill:#2a255e;}.cls-2{fill:#332b5d;}.cls-3{fill:#50365b;}.cls-4{fill:#3d305d;}.cls-5{fill:#a8694b;}.cls-6{fill:#6e4758;}.cls-7{fill:#624157;}.cls-8{fill:#905b4f;}.cls-9{fill:#fafafa;}.cls-10{fill:#f5f8f8;}.cls-11{fill:#ca783f;}.cls-12{fill:#1a663e;}</style></defs><title>5047</title><path class="cls-1" d="M338.86,124.21v1.16c-.55.1-1,.31-.92,1,.06.57.48.69.91.78l-.08,1.75c-1.66.82-.63,2.4-.9,3.61l.25,1.55-.24.82c-.57.32-.6.8-.35,1.36l0,0c-2.14,1-3.64,4.24-3,6.39l.13,1.41-.51.93c-.75,0-.73,1-1.29,1.23-1.18,0-1.14.92-1.11,1.8l0,1.22a9.05,9.05,0,0,1-2.06,2.88c-.61.11-.82.54-.79,1.15a3.87,3.87,0,0,1-1.58,2c-.12-.66-.23-1.42-1.1-1.19s-.58,1-.61,1.65c-1.51,1.15-2.67,2.81-4.47,3.54-1.64-.51-3.53,1.73-4.93-.28-1.83-2.62-3.88-5.24-5-8.22a33.62,33.62,0,0,0-3.92-7.65c-2.2-3.22-3.32-7.21-6.22-10a2.12,2.12,0,0,1-.53-1.34c-.1-2.83-1.89-4.87-3-7.17-1.23-2.5-2.54-2.43-4.43-.24a10.81,10.81,0,0,0-4.81-1.27c-4.73-.23-8.23,2.92-8.41,7.51l-1.73.65c0-5.11-1.47-6.88-6.23-7.54a30.76,30.76,0,0,0-6.67.08c-1.25.1-1.71.61-1.7,2,.06,5.74,0,11.49-.06,17.23,0,1.87.81,2.37,2.38,2.42,1.73.06,2-.93,1.9-2.43a13.48,13.48,0,0,1,0-3c.16-1-.79-2.68,1-2.81,1.6-.11,3.19.36,3.67,2.41.31,1.34.54,2.7.81,4a1.55,1.55,0,0,1-1.68-1.5c-.18-1-.38-2.66-1.71-2.47-1.66.24-1.37,2.05-1.12,3.14.51,2.17-.59,3.33-1.87,4.53-1.11,1-5,1-6-.28-1.15-1.58.77-2,1.25-3.05a2.19,2.19,0,0,0,.35-1.07c-.21-1.51.94-3.88-1.24-4.23-1.52-.24-1,2.06-1.51,3.14-.58-.26-1.14-.51-1.08.58-.17,1.79-3.07,4.54-5,4.77-.37-.61-.74-.61-1.12,0h0c-1-.33-2.9.89-2.51-1.72,4.77.71,8.91-3,9.21-8.49.17-3.06.05-6.14.05-9.21,0-4.59,0-4.59-4.43-4.16.25-2.54,2.47-.63,3.23-1.6.88-1.12,1-.59,1.61.2s1.77,2.33,2.32,1.57c1.5-2.11,3.43-.62,5.05-1.23a9.36,9.36,0,0,1,5.48-.05c2.48.59,2.48.59,4.31-1.68.36-.44,1-.53,1.23-.21.87,1.15,2,.41,2.85.54.48.9-.82.84-.42,1.75,3.62-.27,7.28-.94,11-.7,1,.06,2.74.36,2.72-1s.78-3.75-1.88-4a1.89,1.89,0,0,1-1.58-1.52c-1.06-5-4.11-9.21-5.48-14.09A7.6,7.6,0,0,0,281,96.57a3.48,3.48,0,0,1-2.22-3.43A10.11,10.11,0,0,0,277,86.78a4.07,4.07,0,0,1-.3-3.44,20,20,0,0,0,.44-5.58c0-10.19.05-20.39,0-30.58,0-2.07.56-2.76,2.53-2.72,5.47.12,10.95,0,16.42.09,2,.05,3.7-1.09,3.66-2.69s-.12-4.32-2.85-4.49c0-2.37-.15-4.75-.06-7.12.07-1.83-.35-2.64-2.28-2.63q-27.16.1-54.32,0c-1.82,0-2.17.72-2.12,2.46.11,3.56.13,7.14,0,10.7-.09,2.08.73,2.47,2.43,2.44,4.92-.09,9.86.22,14.76-.13,2.91-.21,3.4.89,3.38,3.63-.13,19.81-.1,39.62-.22,59.43,0,2.37.44,3.31,2.87,3.2,4.54-.19,9.09,0,13.64,0-.31,1.64-1.55,1.11-2.47,1.13-3.71,0-7.43,0-11.14,0-4,0-4.73-1-3.73-5.15a5.11,5.11,0,0,0,.06-1.18c0-18.42,0-36.85,0-55.27,0-4-1.91-5.4-5.58-4.73-4,.74-8.15.44-12.2.15-1.69-.12-3.83-.9-3.28-3.46.73-3.45.5-6.9.4-10.34-.09-2.93.68-4.34,3.58-3.9.6.09,1.38.26,1.79-.44.52-.9-.38-1.37-.65-2-1.07-2.69-4.27-4.21-4.42-7-.24-4.36-3-7.32-4.37-11C232,3.89,231,2.18,232.51,0c6.69,0,13.37-.09,20.06-.09q42.08,0,84.16.07a12.22,12.22,0,0,1,1.16,6.23q-.05,57.33,0,114.67C337.9,122,337.15,123.58,338.86,124.21Zm-78.46,6.57h0c0,.89-.07,1.79,0,2.67s-.47,2.16.59,2.27,1.55-1.12,1.61-2.3c.13-2.23-.72-4.43-.05-6.69a1,1,0,0,0-.86-1.26,1,1,0,0,0-1.28,1.15C260.38,128,260.4,129.39,260.4,130.77ZM298,27.28c-.06.89-1,1.78-.06,2.64a.5.5,0,0,0,.5,0C299.26,28.94,298.23,28.17,298,27.28Zm-18.71,97.8-.26-.44c-.08.15-.21.3-.21.45s.14.29.22.44Zm-2.21-1,.22-.13c-.07-.06-.13-.15-.2-.16s-.15.08-.22.12Z" transform="translate(0.54 0.12)"/><path class="cls-2" d="M296.81,37.36c2.73.17,2.8,2.9,2.85,4.49S298,44.6,296,44.55c-5.47-.14-10.95,0-16.42-.09-2,0-2.54.65-2.53,2.72.08,10.19,0,20.39,0,30.58a20,20,0,0,1-.44,5.58,4.07,4.07,0,0,0,.3,3.44,10.11,10.11,0,0,1,1.86,6.36A3.48,3.48,0,0,0,281,96.57a7.6,7.6,0,0,1,4.29,5.24c1.37,4.88,4.42,9,5.48,14.09a1.89,1.89,0,0,0,1.58,1.52c2.67.24,1.86,2.67,1.88,4s-1.71,1-2.72,1c-3.7-.23-7.36.44-11,.7-.4-.91.9-.85.42-1.75-.82-.13-2,.61-2.85-.54-.24-.31-.88-.23-1.23.21-1.83,2.27-1.83,2.27-4.31,1.68a9.36,9.36,0,0,0-5.48.05c-1.62.6-3.55-.88-5.05,1.23-.54.76-1.73-.85-2.32-1.57s-.73-1.33-1.61-.2c-.76,1-3-.94-3.23,1.6a.32.32,0,0,1-.05.39c-2.32,4.74-1,9.59-.37,14.42l.06.12c-5.42,1.13-5.42,1.13-5.86-5-.23-3.23.09-6.44-.4-9.71s-2.43-2.2-3.9-2c-1.89.23-2.42,1.59-1.37,3.42v1.79c-1.34,1.3-2.66,3.1-4.09.08-.07-.15-.52-.09-.8-.13.19-2.54-1.31-4.15-2.91-5.58-.92-.82-1.83-1.6-1.42-2.89s-.37-2.19-.82-3.23c-.72-1.65-2.54-2.94-2-5s-.4-2.66-1.86-3.2c-2.92-1.08-4.69-3-4.46-6.59a3.28,3.28,0,0,0-1.22-2.87c-4-3-5.07-8.22-7.56-12.33-1.7-2.8-2-6.63-5.29-8.23a4.82,4.82,0,0,1-2.55-3.58c-.36-1.43-.78-2.83-1.14-4.26a2.54,2.54,0,0,0-2.83-2.24,30.08,30.08,0,0,0-1.56-9.41,56.09,56.09,0,0,0-5.17-11.93c-1.48-2.66-3.5-5.88-7.27-6.17A2.57,2.57,0,0,1,187.91,38c1.43-2.35,1.19-4.24-1.16-5.82a4.38,4.38,0,0,1-2.13-3.92,6.51,6.51,0,0,0-1.55-4.57c-2.36-3.1-4.94-6-5.59-10.21a3,3,0,0,0-1.28-1.84c-4.39-2.56-4.53-7.15-5-11.59h61.32c-1.51,2.17-.51,3.87.32,6.11,1.36,3.69,4.13,6.65,4.37,11,.15,2.8,3.35,4.32,4.42,7,.27.68,1.17,1.15.65,2-.41.7-1.19.53-1.79.44-2.9-.43-3.67,1-3.58,3.9.1,3.43.33,6.88-.4,10.34-.54,2.56,1.59,3.34,3.28,3.46,4.06.29,8.17.59,12.2-.15,3.67-.67,5.57.7,5.58,4.73.05,18.42,0,36.85,0,55.27a5.11,5.11,0,0,1-.06,1.18c-1,4.11-.28,5.13,3.73,5.15,3.71,0,7.43,0,11.14,0,.92,0,2.16.52,2.47-1.13,1.16-1.13.59-2.62.59-3.92,0-19.72.08-39.43,0-59.15,0-2.69.67-3.35,3.11-3.21,4.07.24,8.17.06,12.26.06C296.45,43.15,296.45,43.15,296.81,37.36Zm-42.47,84a.65.65,0,0,0-.23.08s0,.14.05.21a.66.66,0,0,0,.23-.08S254.36,121.44,254.34,121.37Z" transform="translate(0.54 0.12)"/><path class="cls-3" d="M223.59,170.47h-44a185.21,185.21,0,0,0-9.47-17.72q0-20.93,0-41.85c0-1.18.57-2.64-.88-3.45v-.21c4.13-1.53,8.58-.87,12.81-2.94a46.11,46.11,0,0,0,10.6-6.8c1.2-1.07,2.18-2.42,3.7-3,1.19.58,1.62,1.8,2.22,2.91,3.64,6.77,7.23,13.57,11,20.25a10.31,10.31,0,0,1,1.82,4.78c-1.44.51-3.33-1-4.42,1.11-1.05.31-2.55-.36-2.84,1.59-.35,2.37.31,3.59,2.77,3.18,2.15-.36,3.51,0,3.25,3-.28,3.24-.05,6.53-.08,9.8,0,4.55-.05,4.55,4.14,4.26.38,1.68-2.7,2.23-1.21,4.28,2,2.68,2.83,6,4.87,8.7A34.08,34.08,0,0,1,223.59,170.47Z" transform="translate(0.54 0.12)"/><path class="cls-2" d="M278.21,131.33l1.73-.65h0c0,.69-.22,1.47.7,1.74l-.08-.07.69.83c1.69,1.78,3.84,2.65,6,3.59,1,.45,2.35,1.18,1.91,2.82-.39,1.44-1.6,1.73-2.88,1.84a6.42,6.42,0,0,1-3.52-.64c-1.52-.81-1.87,0-2.23,1.27s-.38,2.51,1.28,2.88a14.84,14.84,0,0,0,6.33.38c3.41-.71,5.42-2.64,5.75-5.5.38-3.36-.84-5.43-4.24-7.12-1-.5-2.06-.9-3.06-1.41s-1.72-1-1.5-2.19,1.14-1.46,2.08-1.67a5.48,5.48,0,0,1,3,.23c.75.25,1.55.8,2.33,0a13.09,13.09,0,0,1,1.32-1.c.57-.32,1.74,0,1.48-1.18s-1.35-.59-2.1-.74a.21.21,0,0,1-.05-.35c1.88-2.19,3.2-2.27,4.43.24,1.13,2.3,2.92,4.35,3,7.17a2.12,2.12,0,0,0,.53,1.34c2.9,2.74,4,6.73,6.22,10a33.62,33.62,0,0,1,3.92,7.65c1.08,3,3.13,5.6,5,8.22,1.4,2,3.29-.23,4.93.28-1.51,2.56-4.14,3.37-6.36,4.88-4.67,3.18-9.79,4.39-15.1,5.26-1.23.2-2.75-.58-3.66,1l-27.3,0c.09-1.57-.84-1.74-2-1.67a12.42,12.42,0,0,1-4.64-.56c-.71-.23-1.36-.57-1.11-1.35,1-3.14-1.12-5.8-1.07-8.75,0-2.41-1.09-3.33-3-4.55s-6.2-1.14-4.07-5.75c0-.08-.21-.3-.32-.45h1.12c2-.23,4.88-3,5-4.77a1.06,1.06,0,0,0,1.08-.58c.53-1.09,0-3.39,1.51-3.14,2.18.35,1,2.72,1.24,4.23a2.19,2.19,0,0,1-.35,1.07c-.48,1-2.4,1.47-1.25,3.05.94,1.29,4.86,1.32,6,.28,1.28-1.2,2.38-2.36,1.87-4.53-.25-1.09-.54-2.91,1.12-3.14,1.34-.19,1.53,1.45,1.71,2.47a1.55,1.55,0,0,0,1.68,1.5c1.38,3,3.75,1.28,6.13,1.69-1.49-2.89-1.05-6.23-3.08-8.22s-.88-2.74.68-3.68c1,.46.37-.45.53-.71a.31.31,0,0,1,.1-.38l.45-.84A.23.23,0,0,1,278.21,131.33Zm11.5,17.41c-.06-.17-.09-.42-.2-.48s-.3.1-.46.17c.06.17.09.42.19.48S289.55,148.8,289.71,148.74Zm-3-1c-.15-.1-.28-.25-.42-.25s-.29.13-.43.21c.13.09.26.25.4.25S286.57,147.78,286.73,147.7Z" transform="translate(0.54 0.12)"/><path class="cls-4" d="M252.57,147.38c.11.15.36.38.32.45-2.12,4.61,2.32,4.62,4.07,5.75s3,2.14,3,4.55c-.06,3,2.06,5.61,1.07,8.75-.25.78.4,1.12,1.11,1.35a12.42,12.42,0,0,0,4.64.56c1.14-.07,2.07.1,2,1.67l-4.48,0a2,2,0,0,0-2.75,0l-10.6,0c-1.12-1.69-2.24-1.68-3.35,0h-24a34.08,34.08,0,0,0-5.79-12.14c-2-2.7-2.92-6-4.87-8.7-1.5-2.05,1.59-2.61,1.21-4.28l.11,0,.9-.3.11-14.92c1.21-.7,2.4-1.6,3.87-1.11,1.73.58-.11,2.39.9,3.27l.21.19c0,.89,0,1.78,0,2.66.31,6.43,4.17,10.52,9.82,10.4s9.46-4.4,9.66-10.7a15.54,15.54,0,0,0-1.75-7.64l.13-.13c.27,0,.73,0,.8.13,1.43,3,2.75,1.22,4.09-.08,0,3.13,0,6.26.11,9.39.09,3.9,1.28,7.1,5,8.62.32,1.29,1,1.18,1.8.51l.13,0C249.66,148.28,251.58,147.06,252.57,147.38Z" transform="translate(0.54 0.12)"/><path class="cls-5" d="M77,170.43c-9.74.05-19.49.13-29.23.15-15,0-30.08-.08-45.11.06-2.65,0-3.18-.87-3.17-3.49q.22-63.87.26-127.75a15.47,15.47,0,0,1,2.16-7.58c3.76-6.76,6.6-14.14,12-19.82C19.67,5.83,26.46,1.67,34.61.22a7.07,7.07,0,0,1,3.31,0c-.06.78-.62.78-1.16,1-4,1.48-8.16,2.29-11.93,4.35-3.24,1.77-6.37,3.72-8.64,6.9-3.9,4.82-7.83,9.55-10.82,15.17C3,32,2.23,35.51,5.58,40c1.84,2.47,4,5.43,4,9.16q-.07,28.62-.07,57.23c-1.28-.2-1.36-1.48-1.86-2.37C5.47,100.13,3.34,96.23.85,91.67c-.31,3.41-.75,6-.75,8.63C0,120.2.09,140.09,0,160c0,1.85.5,3.63.15,5.55C-.45,168.92.56,170,3.86,170q16.14,0,32.28,0a43.43,43.43,0,0,0,4.39-.48c2.4-.24,1.68-1.27.94-2.62-1.25-2.29-2.91-4.34-3.51-7,9.52,0,19.06.41,28.54-.18,5-.31,7.24,2.15,8.9,6.33C76,167.48,76.45,169,77,170.43Z" transform="translate(0.54 0.12)"/><path class="cls-4" d="M171.2,0c.46,4.45.6,9,5,11.59a3,3,0,0,1,1.28,1.84c.65,4.19,3.23,7.11,5.59,10.21a6.51,6.51,0,0,1,1.55,4.57,4.38,4.38,0,0,0,2.13,3.92c2.35,1.58,2.59,3.47,1.16,5.82-3-1.29-6.15-2.28-8.92-4.17-.82-2.08-2.1-1.25-3.34-.59h-4.46c.09-.92-.78-1.17-1.13-1.78,0-6,0-12,0-18,0-.94.31-2-.55-2.77-.34-1.82-1.72-1.16-2.69-1.17-10.26-.06-20.51-.06-30.77-.07A8,8,0,0,0,133.78,5a5.5,5.5,0,0,1-1.6-5Z" transform="translate(0.54 0.12)"/><path class="cls-6" d="M16.2,12.39c2.26-3.17,5.4-5.13,8.64-6.9,3.77-2.06,8-2.86,11.93-4.35.54-.2,1.1-.2,1.16-1C41,.62,44.1.15,47.2,0,55.82-.28,64.46,0,73.09,0c0,2.79,2.12,4.46,3.24,6.65.82,1.59.76,2.66-.44,3.79-10.85.07-21.7.15-32.55.19a28.37,28.37,0,0,0-6.32.91c-6.63,1.54-12,5.52-17.13,10C19.68,18,17.06,15.61,16.2,12.39Z" transform="translate(0.54 0.12)"/><path class="cls-3" d="M75.89,10.45c1.2-1.13,1.26-2.2.44-3.79C75.22,4.48,73.12,2.8,73.09,0h59.09a5.5,5.5,0,0,0,1.6,5,8,8,0,0,1,2.28,4.38q-27.51,0-55,.08c-1,0-2.3-.72-2.9.89Z" transform="translate(0.54 0.12)"/><path class="cls-6" d="M144.44,170.35q-21.74.43-43.47.08a11.6,11.6,0,0,0-2.88-7.65,3.56,3.56,0,0,1-1-2.9l42.35,0c1.41,2.35,1.91,5.26,4.1,7.16A3.8,3.8,0,0,1,144.44,170.35Z" transform="translate(0.54 0.12)"/><path class="cls-7" d="M144.44,170.35a3.8,3.8,0,0,0-.93-3.29c-2.19-1.9-2.69-4.81-4.1-7.16l2.49,0c8.38,0,16.77,0,25.15-.06.6,0,2.38,1.2,1.9-1.17l.33-4.17c1-.2.78-1,.82-1.73a185.23,185.23,0,0,1,9.47,17.72C167.85,170.59,156.14,170.77,144.44,170.35Z" transform="translate(0.54 0.12)"/><path class="cls-8" d="M97.06,159.88a3.56,3.56,0,0,0,1,2.9,11.6,11.6,0,0,1,2.88,7.65H77c-.52-1.46-1-2.95-1.57-4.39-1.65-4.18-3.86-6.64-8.9-6.33-9.49.59-19,.17-28.54.18l-.52-.05,0-.83c.92-.08,1.83-.22,2.75-.22q17.64,0,35.28,0c6.66,0,13.32.13,20,.2C95.62,160,96.4,159.82,97.06,159.88Z" transform="translate(0.54 0.12)"/><path class="cls-4" d="M338.86,124.21c-1.71-.63-1-2.18-1-3.31q-.06-57.33,0-114.67A12.22,12.22,0,0,0,336.73,0C338-.19,339-.45,339,1.69q-.11,61.11-.11,122.23A1.74,1.74,0,0,1,338.86,124.21Z" transform="translate(0.54 0.12)"/><path class="cls-7" d="M296,170.44c.91-1.59,2.43-.81,3.66-1,5.31-.87,10.43-2.08,15.1-5.26,2.22-1.51,4.86-2.32,6.36-4.88,1.8-.73,3-2.39,4.47-3.54l1.48-.05C318.57,165,308.77,171.23,296,170.44Z" transform="translate(0.54 0.12)"/><path class="cls-4" d="M334.53,142.64c-.67-2.15.83-5.38,3-6.39a13.41,13.41,0,0,1-2.12,6.38Z" transform="translate(0.54 0.12)"/><path class="cls-7" d="M247.55,170.47c1.11-1.68,2.23-1.69,3.35,0Z" transform="translate(0.54 0.12)"/><path class="cls-4" d="M327.11,155.71l-1.48.05c0-.63-.21-1.43.61-1.65s1,.53,1.1,1.19A.3.3,0,0,1,327.11,155.71Z" transform="translate(0.54 0.12)"/><path class="cls-4" d="M337.88,132.54c.27-1.21-.76-2.79.9-3.61a7.46,7.46,0,0,1-.33,3.6Z" transform="translate(0.54 0.12)"/><path class="cls-7" d="M332.86,146.21c.56-.26.54-1.2,1.29-1.23a3.42,3.42,0,0,1-1.25,2.5Z" transform="translate(0.54 0.12)"/><path class="cls-4" d="M332.86,146.21l0,1.27a.43.43,0,0,1-.24.48l-.9,0C331.72,147.13,331.68,146.25,332.86,146.21Z" transform="translate(0.54 0.12)"/><path class="cls-4" d="M338.85,127.18c-.43-.09-.85-.21-.91-.78-.08-.73.38-.93.92-1Z" transform="translate(0.54 0.12)"/><path class="cls-7" d="M261.5,170.48a2,2,0,0,1,2.75,0Z" transform="translate(0.54 0.12)"/><path class="cls-7" d="M337.53,136.27c-.25-.56-.22-1,.35-1.36A1,1,0,0,1,337.53,136.27Z" transform="translate(0.54 0.12)"/><path class="cls-7" d="M331.75,148l.9,0a1.39,1.39,0,0,1-.89,1.26Z" transform="translate(0.54 0.12)"/><path class="cls-7" d="M328.92,153.26c0-.61.18-1,.79-1.15A1,1,0,0,1,328.92,153.26Z" transform="translate(0.54 0.12)"/><path class="cls-7" d="M337.88,132.54h.57a1.36,1.36,0,0,1-.32,1.56Z" transform="translate(0.54 0.12)"/><path class="cls-7" d="M334.53,142.64l.85,0a1.91,1.91,0,0,1-.72,1.43Z" transform="translate(0.54 0.12)"/></svg>
